Coordinates
version=1
nRows=14
nColumns=40
inDegrees=yes

Units are S.I. units (second, meters, Newtons, ...)
Angles are in degrees.

endheader
time	pelvis_tilt	pelvis_list	pelvis_rotation	pelvis_tx	pelvis_ty	pelvis_tz	hip_flexion_r	hip_adduction_r	hip_rotation_r	knee_angle_r	knee_angle_r_beta	ankle_angle_r	subtalar_angle_r	mtp_angle_r	hip_flexion_l	hip_adduction_l	hip_rotation_l	knee_angle_l	knee_angle_l_beta	ankle_angle_l	subtalar_angle_l	mtp_angle_l	lumbar_extension	lumbar_bending	lumbar_rotation	arm_flex_r	arm_add_r	arm_rot_r	elbow_flex_r	pro_sup_r	wrist_flex_r	wrist_dev_r	arm_flex_l	arm_add_l	arm_rot_l	elbow_flex_l	pro_sup_l	wrist_flex_l	wrist_dev_l
     39.99500000	     -2.19085850	     -5.77124235	      0.18489387	      0.97497785	      0.92433944	      0.48489480	     18.96919508	      4.29993255	    -13.70593772	     18.14561821	     18.14561821	      3.47564585	     -4.53894629	     -5.22884613	      7.82459666	    -11.83818739	     -5.10420725	     50.79810831	     50.79810831	      5.46164820	    -16.18895549	    -12.18665310	     -8.49722081	      7.63687307	      1.37598527	      2.69766044	    -12.29585009	     -7.74845104	     30.67796594	     45.81616292	      0.00000000	      0.00000000	      8.05179294	     -8.94213049	     -3.79545073	     56.62069605	     46.53293045	      0.00000000	      0.00000000
     40.00742857	     -2.12498992	     -5.77145027	      0.57641047	      0.97490293	      0.92526000	      0.48662334	     18.21070160	      4.34044729	    -14.22643336	     17.85498639	     17.85498639	      3.79443324	     -4.10716642	     -5.97940543	     10.36779502	    -12.03312681	     -3.83167559	     55.08232902	     55.08232902	      6.02951751	    -15.77340493	     -5.37199323	     -8.41178270	      7.65298292	      1.96855455	      3.68282412	    -12.78909526	     -6.34320750	     32.50114817	     45.67559504	      0.00000000	      0.00000000	      9.19903907	     -7.70235944	     -4.54754942	     49.76101151	     46.53604953	      0.00000000	      0.00000000
     40.01985714	     -2.07004368	     -5.85862929	      0.96895852	      0.97456210	      0.92605813	      0.48841220	     17.44910168	      4.51659212	    -14.67928392	     17.49548194	     17.49548194	      4.20070668	     -3.72618962	     -6.37339871	     12.83219589	    -12.32209075	     -2.67692775	     58.70765743	     58.70765743	      6.09065205	    -15.53273690	     -0.67085482	     -8.46549349	      7.66831145	      1.96722107	      5.04051993	    -13.19733516	     -5.20451694	     34.66262737	     45.55367126	      0.00000000	      0.00000000	      8.76890653	     -7.31117792	     -4.52062267	     46.71917457	     46.49305559	      0.00000000	      0.00000000
     40.03228571	     -2.07205417	     -6.02047665	      1.32325268	      0.97398204	      0.92674933	      0.49032142	     16.73558745	      4.82061474	    -15.03787097	     17.07514244	     17.07514244	      4.59461961	     -3.45619592	     -6.46624217	     15.16484025	    -12.67105138	     -1.64496493	     61.49241406	     61.49241406	      4.96769285	    -15.98940259	     -0.03229198	     -8.51292621	      7.72378332	      1.99812087	      6.85648005	    -13.30384618	     -5.14298272	     35.71433941	     45.52495554	      0.00000000	      0.00000000	      7.73255226	     -7.14170338	     -4.34916247	     45.34892094	     46.44952867	      0.00000000	      0.00000000
     40.04471429	     -2.13033877	     -6.09111673	      1.71307827	      0.97320450	      0.92742814	      0.49204123	     16.06006332	      4.99835527	    -15.50982761	     16.59380439	     16.59380439	      4.97022901	     -2.96963308	     -6.63647514	     17.51175232	    -12.82703874	     -0.66462028	     63.73982951	     63.73982951	      4.45923073	    -16.33438414	      1.20324579	     -8.44813335	      7.68179653	      1.69627154	      8.79005352	    -13.29864945	     -4.89741042	     37.10696627	     45.47358434	      0.00000000	      0.00000000	      6.90100272	     -7.12524544	     -4.16388897	     42.91928814	     46.39832325	      0.00000000	      0.00000000
     40.05714286	     -2.10107683	     -6.04541079	      1.95270250	      0.97222337	      0.92821863	      0.49370220	     15.35890741	      5.04405049	    -15.98365628	     16.23871728	     16.23871728	      5.29248168	     -2.23160741	     -7.01739392	     19.74413569	    -12.82194247	      0.07226857	     65.67800836	     65.67800836	      5.82380462	    -16.01290048	      5.74494855	     -8.53298334	      7.52443176	      2.56326916	      9.72773016	    -14.18623007	     -3.19581043	     39.72643279	     45.30999818	      0.00000000	      0.00000000	      7.97170738	     -6.45869502	     -4.08164350	     37.07410468	     46.34527739	      0.00000000	      0.00000000
     40.06957143	     -2.17881101	     -6.08882745	      2.23581850	      0.97111556	      0.92885430	      0.49544801	     14.71302093	      5.26105600	    -16.22019656	     15.70560199	     15.70560199	      5.57185537	     -1.96751395	     -7.01709591	     21.90143089	    -12.95137566	      0.67229762	     66.72043595	     66.72043595	      5.66075256	    -16.53575137	      5.95880929	     -8.52944687	      7.41511831	      2.55629459	     11.60774475	    -14.32468136	     -3.22162958	     41.03140977	     45.27741339	      0.00000000	      0.00000000	      6.92003095	     -6.44865884	     -3.98628482	     35.89989933	     46.31049067	      0.00000000	      0.00000000
     40.08200000	     -2.22601551	     -6.08786837	      2.52238002	      0.96995411	      0.92961235	      0.49706520	     13.99087052	      5.43133178	    -16.49493900	     15.08632818	     15.08632818	      5.81131588	     -1.51658368	     -7.02739649	     23.88249638	    -13.00991960	      1.11993579	     67.10882160	     67.10882160	      5.85766394	    -17.07505444	      6.40894507	     -8.56089635	      7.29822777	      2.34016120	     13.54097352	    -14.32819481	     -3.09478342	     42.77170881	     45.22159140	      0.00000000	      0.00000000	      6.02198774	     -6.56338552	     -3.84275288	     34.04990123	     46.26979081	      0.00000000	      0.00000000
     40.09442857	     -2.23952968	     -6.04912772	      2.75863506	      0.96876396	      0.93047504	      0.49863270	     13.21620161	      5.57169938	    -16.77554122	     14.43160049	     14.43160049	      6.01401795	     -0.96085435	     -7.04458880	     25.65384165	    -13.06620353	      1.31605108	     66.85986770	     66.85986770	      6.39949419	    -17.57926783	      7.26559731	     -8.67809989	      7.12813588	      2.35040314	     15.23857812	    -14.52994673	     -2.73213811	     45.00055021	     45.13789541	      0.00000000	      0.00000000	      5.45850721	     -6.61844796	     -3.65645545	     31.63300484	     46.22702203	      0.00000000	      0.00000000
     40.10685714	     -2.28293158	     -6.00431644	      2.98420447	      0.96755427	      0.93120675	      0.50006737	     12.50891928	      5.68326024	    -17.06882019	     13.84885956	     13.84885956	      6.25160283	     -0.40877161	     -7.15784103	     27.36653728	    -13.12030911	      1.36550802	     66.13611242	     66.13611242	      7.61124428	    -17.88967188	      9.79049486	     -8.72871638	      6.99958384	      3.38230998	     15.63119338	    -15.72493039	     -1.62321475	     49.14263988	     44.96880476	      0.00000000	      0.00000000	      5.97517558	     -6.29379033	     -3.38793417	     27.79432161	     46.18011904	      0.00000000	      0.00000000
     40.11928571	     -2.31008495	     -6.01365316	      3.23523722	      0.96639961	      0.93197216	      0.50147186	     11.68880723	      5.92293691	    -17.18800156	     13.05106388	     13.05106388	      6.40932080	     -0.11075215	     -7.04367730	     28.80720160	    -13.29553558	      1.20753876	     64.65914769	     64.65914769	      8.11875583	    -18.36205508	     10.35175513	     -8.78671133	      6.92545049	      3.23243090	     17.56762776	    -15.67308961	     -1.82357130	     50.91100145	     44.93194848	      0.00000000	      0.00000000	      4.85662114	     -6.51242087	     -3.34531307	     26.83763590	     46.15133100	      0.00000000	      0.00000000
     40.13171429	     -2.32376554	     -6.02115364	      3.46963981	      0.96531086	      0.93264661	      0.50268441	     10.85173256	      6.12514616	    -17.47771436	     12.26754973	     12.26754973	      6.55848828	      0.51042175	     -7.14892528	     30.10216598	    -13.42747291	      0.94375608	     62.78807409	     62.78807409	      9.42645599	    -18.56929697	     13.07813278	     -8.88333548	      6.88634654	      3.69755109	     18.42344266	    -16.34410946	     -1.76901790	     54.79828281	     44.83517027	      0.00000000	      0.00000000	      4.33979789	     -6.53180571	     -3.16534538	     25.27118396	     46.10223717	      0.00000000	      0.00000000
     40.14414286	     -2.32153353	     -6.04230283	      3.71069439	      0.96432218	      0.93328338	      0.50383707	      9.94866078	      6.38595648	    -17.61900262	     11.38761871	     11.38761871	      6.66893152	      0.88744241	     -7.03726434	     31.09361596	    -13.59739619	      0.49490778	     60.26362481	     60.26362481	      9.91495897	    -18.80942554	     13.78288251	     -8.94005409	      6.86383423	      3.55787167	     20.31219751	    -16.21102740	     -2.01063170	     56.68769972	     44.79755867	      0.00000000	      0.00000000	      3.19993060	     -6.75361148	     -3.09977058	     24.48912899	     46.06900235	      0.00000000	      0.00000000
     40.15657143	     -2.49283504	     -6.03739911	      3.87047290	      0.96317735	      0.93349564	      0.50483108	      9.41408411	      6.54650533	    -17.70066225	     10.84729681	     10.84729681	      6.88139184	      1.12191549	     -7.03971431	     32.07160632	    -13.73047580	     -0.16969451	     57.32529602	     57.32529602	     10.23552732	    -18.93532639	     14.33587859	     -8.78369722	      6.82579560	      3.87823881	     22.14248507	    -16.53881695	     -2.25370558	     58.05050340	     44.77247316	      0.00000000	      0.00000000	      2.20303961	     -6.81387192	     -3.08077141	     24.02568406	     46.04659112	      0.00000000	      0.00000000
